<svg width="60" height="60" viewBox="0 0 60 60" fill="none" xmlns="http://www.w3.org/2000/svg">
<mask id="mask0_210_14" style="mask-type:luminance" maskUnits="userSpaceOnUse" x="0" y="0" width="60" height="60">
<path d="M47.0526 0H12.9474C5.79675 0 0 5.79675 0 12.9474V47.0526C0 54.2033 5.79675 60 12.9474 60H47.0526C54.2033 60 60 54.2033 60 47.0526V12.9474C60 5.79675 54.2033 0 47.0526 0Z" fill="white"/>
</mask>
<g mask="url(#mask0_210_14)">
<path d="M47.0526 0H12.9474C5.79675 0 0 5.79675 0 12.9474V47.0526C0 54.2033 5.79675 60 12.9474 60H47.0526C54.2033 60 60 54.2033 60 47.0526V12.9474C60 5.79675 54.2033 0 47.0526 0Z" fill="url(#paint0_linear_210_14)"/>
<g filter="url(#filter0_f_210_14)">
<path d="M18.9105 73.5905C30.5755 73.5905 40.0319 64.1341 40.0319 52.4691C40.0319 40.804 30.5755 31.3477 18.9105 31.3477C7.24544 31.3477 -2.21094 40.804 -2.21094 52.4691C-2.21094 64.1341 7.24544 73.5905 18.9105 73.5905Z" fill="#32E6B9" fill-opacity="0.4"/>
</g>
<g filter="url(#filter1_f_210_14)">
<path d="M50.0088 84.7325C60.6711 84.7325 69.3145 76.089 69.3145 65.4268C69.3145 54.7645 60.6711 46.1211 50.0088 46.1211C39.3466 46.1211 30.7031 54.7645 30.7031 65.4268C30.7031 76.089 39.3466 84.7325 50.0088 84.7325Z" fill="#32E6B9"/>
</g>
<path d="M45.8869 4.6926C46.4753 4.16494 46.5108 4.14414 46.9423 4.11824C47.6411 4.06734 48.2812 4.40264 49.3706 5.39442C51.9165 7.70789 55.4619 12.4643 57.666 16.5261L58.5175 18.1026L59.7198 18.7007C60.8811 19.2875 62.7864 20.4908 63.5819 21.136C63.9416 21.4335 63.9925 21.4396 64.3666 21.2941C66.0549 20.6367 68.473 21.508 70.6061 23.5543C72.5264 25.3947 74.3659 28.5393 75.0705 31.1638C75.1734 31.5862 75.3102 32.4946 75.3599 33.1709C75.5206 35.5454 74.7585 37.4417 73.292 38.3002C72.9925 38.4731 72.9724 38.5203 72.9808 39.267C73.0484 42.8234 72.0897 46.3737 70.164 49.8354C67.9902 53.7223 64.1196 57.7429 58.8811 61.5311C56.0681 63.5782 49.4125 67.4562 46.4033 68.8176C39.1947 72.063 33.4159 73.3077 28.3963 72.6927C25.4023 72.33 22.0134 71.1612 20.0081 69.8046C19.4801 69.4396 19.3962 69.4172 18.9929 69.5326C16.8463 70.1491 14.0353 68.8819 11.647 66.2309C10.6944 65.1712 9.15608 62.5688 8.65765 61.1763C7.50488 57.9178 7.73441 54.9775 9.27002 53.2214C9.66677 52.7691 9.67956 52.7499 9.59292 51.9896C9.44981 50.7446 9.3846 48.902 9.44996 47.7127L9.50182 46.6014L7.8337 43.6516C5.25125 39.0565 3.61129 35.1979 2.97848 32.2499C2.64448 30.6338 2.66518 29.9168 3.07523 29.3862C3.32495 29.0658 4.14395 28.7333 5.13131 28.551C7.617 28.1146 13.0386 28.5093 19.0699 29.5742L19.6964 29.6827L21.0728 28.4652C23.3583 26.4407 24.8769 25.3055 27.6759 23.5602C30.5934 21.7348 33.8863 20.2329 37.5942 19.0439L38.7836 18.6627L39.4375 16.9456C41.7789 10.7648 44.1772 6.20855 45.8869 4.6926ZM26.2744 36.3652C23.6282 37.893 22.3048 38.6566 21.3325 39.5127C17.3954 42.9796 15.924 48.4714 17.6001 53.4424C18.014 54.6699 18.7784 55.9931 20.3061 58.6392C21.8338 61.2851 22.5976 62.6088 23.4536 63.581C26.9205 67.5182 32.4123 68.9897 37.3833 67.3135C38.6109 66.8995 39.9343 66.1361 42.5805 64.6083L57.8036 55.8192C60.4499 54.2914 61.7728 53.527 62.745 52.6709C66.6822 49.2039 68.1537 43.7122 66.4775 38.7412C66.0635 37.5137 65.2991 36.1904 63.7714 33.5444C62.2437 30.8983 61.4801 29.5748 60.624 28.6026C57.157 24.6655 51.6652 23.1939 46.6942 24.8701C45.4667 25.2841 44.1437 26.0484 41.4975 27.5761L26.2744 36.3652Z" fill="url(#paint1_linear_210_14)"/>
<path d="M34.4535 46.5991C33.6232 45.161 31.7842 44.6683 30.3461 45.4986C28.908 46.3289 28.4153 48.1678 29.2456 49.6059L32.4836 55.2144C33.3139 56.6525 35.1529 57.1453 36.591 56.315C38.0291 55.4847 38.5218 53.6458 37.6915 52.2076L34.4535 46.5991Z" fill="white"/>
<path d="M50.68 37.2319C49.8497 35.7938 48.0108 35.3011 46.5727 36.1314C45.1346 36.9617 44.6418 38.8006 45.4721 40.2387L48.7102 45.8472C49.5405 47.2853 51.3794 47.7781 52.8175 46.9478C54.2557 46.1175 54.7484 44.2786 53.9181 42.8404L50.68 37.2319Z" fill="white"/>
</g>
<defs>
<filter id="filter0_f_210_14" x="-22.3745" y="11.1841" width="82.5694" height="82.5694" filterUnits="userSpaceOnUse" color-interpolation-filters="sRGB">
<feFlood flood-opacity="0" result="BackgroundImageFix"/>
<feBlend mode="normal" in="SourceGraphic" in2="BackgroundImageFix" result="shape"/>
<feGaussianBlur stdDeviation="10.0818" result="effect1_foregroundBlur_210_14"/>
</filter>
<filter id="filter1_f_210_14" x="14.2026" y="29.6205" width="71.6144" height="71.6124" filterUnits="userSpaceOnUse" color-interpolation-filters="sRGB">
<feFlood flood-opacity="0" result="BackgroundImageFix"/>
<feBlend mode="normal" in="SourceGraphic" in2="BackgroundImageFix" result="shape"/>
<feGaussianBlur stdDeviation="8.25028" result="effect1_foregroundBlur_210_14"/>
</filter>
<linearGradient id="paint0_linear_210_14" x1="30" y1="0" x2="30" y2="60" gradientUnits="userSpaceOnUse">
<stop stop-color="#6C4DFF"/>
<stop offset="1" stop-color="#583ED3"/>
</linearGradient>
<linearGradient id="paint1_linear_210_14" x1="24.9931" y1="16.6181" x2="53.0614" y2="65.234" gradientUnits="userSpaceOnUse">
<stop stop-color="white" stop-opacity="0.8"/>
<stop offset="0.437689" stop-color="white"/>
</linearGradient>
</defs>
</svg>
