<svg width="144" height="144" viewBox="0 0 144 144" fill="none" xmlns="http://www.w3.org/2000/svg">
<path fill-rule="evenodd" clip-rule="evenodd" d="M73.1399 5.87207H70.4648C53.6901 5.87207 41.6998 5.88454 32.5877 7.10962C23.6446 8.312 18.3583 10.5847 14.4715 14.4715C10.5847 18.3583 8.312 23.6446 7.10962 32.5877C5.88454 41.6998 5.87207 53.6901 5.87207 70.4648V73.1398C5.87207 89.9145 5.88454 101.905 7.10962 111.017C8.312 119.96 10.5847 125.246 14.4715 129.133C18.3583 133.02 23.6446 135.293 32.5877 136.495C41.6998 137.72 53.6901 137.733 70.4648 137.733H73.1398C89.9145 137.733 101.905 137.72 111.017 136.495C119.96 135.293 125.246 133.02 129.133 129.133C133.02 125.246 135.293 119.96 136.495 111.017C137.72 101.905 137.733 89.9146 137.733 73.1399V70.4648C137.733 53.6901 137.72 41.6998 136.495 32.5877C135.293 23.6446 133.02 18.3583 129.133 14.4715C125.246 10.5847 119.96 8.312 111.017 7.10962C101.905 5.88454 89.9146 5.87207 73.1399 5.87207ZM10.3193 10.3193C0 20.6387 0 37.2474 0 70.4648V73.1398C0 106.357 0 122.966 10.3193 133.285C20.6387 143.605 37.2474 143.605 70.4648 143.605H73.1398C106.357 143.605 122.966 143.605 133.285 133.285C143.605 122.966 143.605 106.357 143.605 73.1399V70.4648C143.605 37.2474 143.605 20.6387 133.285 10.3193C122.966 0 106.357 0 73.1399 0H70.4648C37.2474 0 20.6387 0 10.3193 10.3193Z" fill="white"/>
<path d="M98.8058 27.6172C89.3304 27.6172 81.6223 35.3252 81.6223 44.8006V52.165H61.9841V44.8006C61.9841 35.3252 54.2761 27.6172 44.8006 27.6172C35.3252 27.6172 27.6172 35.3252 27.6172 44.8006C27.6172 54.2761 35.3252 61.9841 44.8006 61.9841H52.165V81.6223H44.8006C35.3252 81.6223 27.6172 89.3304 27.6172 98.8058C27.6172 108.281 35.3252 115.989 44.8006 115.989C54.2761 115.989 61.9841 108.281 61.9841 98.8058V91.4415H81.6223V98.8058C81.6223 108.281 89.3304 115.989 98.8058 115.989C108.281 115.989 115.989 108.281 115.989 98.8058C115.989 89.3304 108.281 81.6223 98.8058 81.6223H91.4415V61.9841H98.8058C108.281 61.9841 115.989 54.2761 115.989 44.8006C115.989 35.3252 108.281 27.6172 98.8058 27.6172ZM91.4415 52.165V44.8006C91.4415 40.7257 94.7309 37.4363 98.8058 37.4363C102.881 37.4363 106.17 40.7257 106.17 44.8006C106.17 48.8756 102.881 52.165 98.8058 52.165H91.4415ZM44.8006 52.165C40.7257 52.165 37.4363 48.8756 37.4363 44.8006C37.4363 40.7257 40.7257 37.4363 44.8006 37.4363C48.8756 37.4363 52.165 40.7257 52.165 44.8006V52.165H44.8006ZM61.9841 81.6223V61.9841H81.6223V81.6223H61.9841ZM98.8058 106.17C94.7309 106.17 91.4415 102.881 91.4415 98.8058V91.4415H98.8058C102.881 91.4415 106.17 94.7309 106.17 98.8058C106.17 102.881 102.881 106.17 98.8058 106.17ZM44.8006 106.17C40.7257 106.17 37.4363 102.881 37.4363 98.8058C37.4363 94.7309 40.7257 91.4415 44.8006 91.4415H52.165V98.8058C52.165 102.881 48.8756 106.17 44.8006 106.17Z" fill="white"/>
</svg>
