<svg width="26" height="24" viewBox="0 0 26 24" fill="none" xmlns="http://www.w3.org/2000/svg">
<path d="M10.3215 16.517C10.0068 15.4866 9.47462 14.2594 8.38563 13.8082C7.28346 13.3906 6.02643 13.8882 5.12361 14.5202C4.4465 15.0034 3.8567 15.6466 3.54368 16.4178C3.43824 16.6802 3.3641 16.9538 3.32786 17.2322C3.28502 17.5106 3.24548 17.7906 3.25042 18.0722C3.28337 19.9026 4.29987 21.6626 5.69858 22.853C6.45972 23.4834 7.44657 24.0658 8.49437 23.9922C10.1649 23.8258 10.4862 21.8242 10.6658 20.5234C10.7416 19.9858 10.7465 19.4434 10.7201 18.9026C10.6773 18.0946 10.5505 17.2962 10.3215 16.5154V16.517Z" fill="#F24A07"/>
<path d="M20.0254 16.9395C19.5213 16.7027 18.9924 16.5299 18.4553 16.3891C17.6514 16.1795 16.8293 16.0483 15.994 16.0195C14.8869 15.9907 13.5211 16.1027 12.7435 16.9699C11.9939 17.8595 12.0927 19.1747 12.4338 20.2035C12.6974 20.9779 13.1455 21.7203 13.8045 22.2499C14.0285 22.4275 14.274 22.5811 14.536 22.7011C14.7946 22.8259 15.0566 22.9491 15.335 23.0323C17.1373 23.5683 19.1753 23.1731 20.7733 22.2483C21.6251 21.7411 22.5016 21.0083 22.752 20.0179C23.1062 18.4227 21.2445 17.5091 20.0254 16.9395Z" fill="#F24A07"/>
<path d="M24.8356 8.13682C24.6016 7.19282 24.1552 6.15762 23.2639 5.62002C21.8125 4.80082 20.3412 6.23762 19.4071 7.18642C19.02 7.57842 18.6872 8.01362 18.3824 8.46642C17.9293 9.14482 17.5471 9.86322 17.2605 10.6248C16.8914 11.6392 16.5784 12.9352 17.188 13.9208C17.8272 14.8872 19.1452 15.204 20.2572 15.2056C21.0974 15.2024 21.964 15.0168 22.684 14.572C22.9278 14.42 23.1535 14.2408 23.3512 14.036C23.5538 13.836 23.7548 13.6312 23.9229 13.4008C25.0053 11.9016 25.2475 9.89682 24.8356 8.13522V8.13682Z" fill="#F24A07"/>
<path d="M15.5757 8.8733C16.7207 8.5821 17.4357 7.46211 17.7833 6.43491C18.0387 5.65731 18.126 4.8013 17.9135 3.9965C17.8393 3.7245 17.7339 3.4605 17.5955 3.2141C17.462 2.9661 17.3253 2.7165 17.149 2.4909C16.0139 1.0285 14.1259 0.186908 12.2741 0.0221081C11.2774 -0.0530919 10.1258 0.0381081 9.32349 0.697308C8.07141 1.7853 9.02365 3.5885 9.66617 4.7437C9.92977 5.2221 10.2543 5.6637 10.6036 6.0845C11.1275 6.7133 11.7123 7.2877 12.3713 7.7885C13.2494 8.4429 14.4224 9.1325 15.5773 8.8749L15.5757 8.8733Z" fill="#F24A07"/>
<path d="M5.86633 12.5336C6.64394 12.244 7.38695 11.8808 8.08054 11.428C8.99325 10.8184 10.0295 9.94799 10.1349 8.80239C10.2025 7.65519 9.32769 6.64719 8.42981 6.01039C7.74775 5.53359 6.93554 5.18959 6.08215 5.13679C5.79384 5.12079 5.50223 5.13679 5.21886 5.18959C4.93385 5.23599 4.64719 5.28559 4.37206 5.37679C2.58948 5.97199 1.18088 7.45519 0.447756 9.11599C0.065539 10.0136 -0.199705 11.1064 0.195691 12.0504C0.874453 13.5432 2.9338 13.22 4.26332 12.9848C4.81358 12.8888 5.34572 12.7256 5.86633 12.5336Z" fill="#F24A07"/>
</svg>
